<svg fill="#f6f5f4" height="64px" width="64px" version="1.1" id="Layer_1" xmlns="http://www.w3.org/2000/svg" xmlns:xlink="http://www.w3.org/1999/xlink" viewBox="-33.82 -33.82 405.84 405.84" xml:space="preserve" stroke="#f6f5f4" transform="rotate(0)"><g id="SVGRepo_bgCarrier" stroke-width="0" transform="translate(0,0), scale(1)"><path transform="translate(-33.82, -33.82), scale(12.682499999999997)" d="M16,29.99319516122341C18.048885719250453,29.942667051893444,19.735891064697768,28.447047953312698,21.46216363405991,27.342299657704714C23.046888715131704,26.328136330665238,24.469839474470035,25.155991047645564,25.73483634355138,23.763272929107508C27.05661076508997,22.308044674800588,29.107606079445436,20.945517054132626,29.057354004727962,18.98025584438125C29.003292486769958,16.866014695523727,25.80264473210011,15.926354824336741,25.480994863009265,13.836024791791603C25.121378063365107,11.498956231407242,28.08271519499825,9.25322081728892,27.221732734277246,7.050966767263324C26.455864794950703,5.092000298011195,23.48109765569381,5.2827711132195265,21.699779326437422,4.164286272912035C19.682576047312015,2.8976899265632117,18.33773585754909,0.4613436185685904,16.000000000000004,0.004871895208077959C13.650891345442968,-0.4538205068629414,10.773969154404716,-0.0198564563964978,9.117021465558619,1.7073478010843655C7.345849933778909,3.553619129389989,7.9013353373136335,6.578750585835223,7.306403050287598,9.067087778935118C6.927695030994614,10.651055014000782,6.769634607994113,12.233109396291075,6.232814340973741,13.770703610170198C5.621455908627567,15.521794703282774,4.295672379709356,16.939323410699984,3.9235865500740488,18.756362563983032C3.45025736088432,21.067812236743816,2.3874794258246013,23.840407150091032,3.780886164932136,25.744418119191433C5.1533837723814475,27.61985795043648,8.211441539667023,26.851676298362513,10.40653711113059,27.614945369670636C12.344468292448802,28.28879435932423,13.948880533798794,30.043778357574137,16,29.99319516122341" fill="#1c71d8" strokewidth="0"></path></g><g id="SVGRepo_tracerCarrier" stroke-linecap="round" stroke-linejoin="round" stroke="#CCCCCC" stroke-width="1.352796"></g><g id="SVGRepo_iconCarrier"> <g id="XMLID_311_"> <g> <g> <path d="M127.088,141.809l-36.345-50.03c-10.148,8.759-18.831,19.169-25.586,30.845H60c-33.138,0-60,26.863-60,60h49.1 c0,9.446,1.098,18.634,3.161,27.451l58.864-19.127L127.088,141.809z"></path> <path d="M194.916,130.062v-0.001l36.354-50.055c-6.963-4.227-14.374-7.788-22.17-10.544V42.624c0-22.091-17.908-40-40-40 c-22.092,0-40,17.909-40,40v26.838c-7.797,2.756-15.209,6.318-22.172,10.545l36.354,50.054H194.916z"></path> <path d="M58.44,229.109c4.555,10.831,10.649,20.854,18.017,29.792c-14.349,25.382-8.402,58.125,15.238,76.673l32.629-41.589 c10.891,4.383,22.571,7.21,34.769,8.219l0.004-61.827l-41.823-30.392L58.44,229.109z"></path> <path d="M278.199,122.624h-5.157c-6.755-11.676-15.439-22.086-25.587-30.846l-36.344,50.029l15.963,49.14l58.864,19.126 c2.063-8.816,3.161-18.004,3.161-27.449h49.1C338.199,149.487,311.337,122.624,278.199,122.624z"></path> <path d="M220.926,209.984l-41.822,30.391l0.005,61.828c12.196-1.009,23.877-3.836,34.767-8.219l32.629,41.589 c23.641-18.548,29.588-51.29,15.238-76.673c7.367-8.937,13.462-18.961,18.017-29.791L220.926,209.984z"></path> <polygon points="192.764,150.06 145.436,150.06 130.807,195.096 169.1,222.922 207.393,195.096 "></polygon> </g> </g> </g> </g></svg>